<svg xmlns="http://www.w3.org/2000/svg" width="24" height="24" viewBox="0 0 24 24">
  <path d="M12,7.2C10.2,6 7.6,5.4 4.3,5.4A0.8,0.8 0 0 0 3.5,6.2V17.6a0.8,0.8 0 0 0 0.8,0.8C7.6,18.4 10.2,19 12,20.2" fill="none" stroke="#000000" stroke-width="1.7" stroke-linecap="round" stroke-linejoin="round"/>
  <path d="M12,7.2C13.8,6 16.4,5.4 19.7,5.4a0.8,0.8 0 0 1 0.8,0.8V17.6a0.8,0.8 0 0 1 -0.8,0.8C16.4,18.4 13.8,19 12,20.2" fill="none" stroke="#000000" stroke-width="1.7" stroke-linecap="round" stroke-linejoin="round"/>
  <path d="M12,7.2V20.2" fill="none" stroke="#000000" stroke-width="1.7" stroke-linecap="round"/>
</svg>
